Coordinates
version=1
nRows=24
nColumns=38
inDegrees=no

Units are S.I. units (second, meters, Newtons, ...)
If the header above contains a line with 'inDegrees', this indicates whether rotational values are in degrees (yes) or radians (no).

endheader
time	pelvis_tilt	pelvis_list	pelvis_rotation	pelvis_tx	pelvis_ty	pelvis_tz	hip_flexion_r	hip_adduction_r	hip_rotation_r	knee_angle_r	ankle_angle_r	subtalar_angle_r	mtp_angle_r	hip_flexion_l	hip_adduction_l	hip_rotation_l	knee_angle_l	ankle_angle_l	subtalar_angle_l	mtp_angle_l	lumbar_extension	lumbar_bending	lumbar_rotation	arm_flex_r	arm_add_r	arm_rot_r	elbow_flex_r	pro_sup_r	wrist_flex_r	wrist_dev_r	arm_flex_l	arm_add_l	arm_rot_l	elbow_flex_l	pro_sup_l	wrist_flex_l	wrist_dev_l
0	0.0720611	1.38952	1.35941	0.657356	-0.456453	1.02108	0.362309	0.0524076	0.168789	0.441248	-0.147624	0	0	0.204937	-0.00673389	-0.100965	0.330109	-0.175847	0	0	-0.335588	0.0292831	-0.0126545	-0.175413	-0.234519	-0.020323	1.1039	1.51422	0	0	-0.294351	0.023954	-0.474925	1.04069	1.5708	0	0
0.01	0.0686334	1.39017	1.36268	0.65711	-0.455189	1.0211	0.360202	0.051203	0.169569	0.441248	-0.146287	0	0	0.200986	-0.00553263	-0.101785	0.325971	-0.176759	0	0	-0.334953	0.0288058	-0.0117105	-0.1786	-0.237494	-0.019025	1.10781	1.5096	0	0	-0.29702	0.0233394	-0.472873	1.04316	1.5708	0	0
0.02	0.0664336	1.39156	1.3669	0.656597	-0.453973	1.0212	0.357016	0.0492298	0.168343	0.440276	-0.144945	0	0	0.196801	-0.0038562	-0.100723	0.322064	-0.177938	0	0	-0.335931	0.0290304	-0.0128324	-0.182852	-0.240185	-0.01928	1.11423	1.50415	0	0	-0.298795	0.0235535	-0.472362	1.04687	1.5708	0	0
0.03	0.0639496	1.39266	1.37176	0.656086	-0.452733	1.02127	0.354155	0.0473238	0.167638	0.439414	-0.143646	0	0	0.193021	-0.00222265	-0.0997584	0.318282	-0.179197	0	0	-0.336878	0.0293245	-0.0145167	-0.187507	-0.243094	-0.0192805	1.12227	1.49841	0	0	-0.300712	0.0242696	-0.473071	1.0514	1.5708	0	0
0.04	0.0611754	1.39361	1.37697	0.65565	-0.451524	1.02136	0.351733	0.0454478	0.16674	0.438997	-0.142523	0	0	0.189614	-0.000675213	-0.0987384	0.3149	-0.180426	0	0	-0.337614	0.0294858	-0.0161991	-0.192292	-0.246673	-0.0182561	1.1318	1.49231	0	0	-0.303711	0.0245336	-0.473365	1.05622	1.5708	0	0
0.05	0.0578177	1.39414	1.38206	0.65534	-0.450263	1.02144	0.349973	0.0438597	0.166078	0.439006	-0.14161	0	0	0.186454	0.000708305	-0.0986693	0.311488	-0.181536	0	0	-0.33743	0.0292003	-0.016712	-0.197632	-0.25028	-0.0173844	1.14241	1.48604	0	0	-0.306173	0.0254274	-0.474421	1.06157	1.5708	0	0
0.06	0.0558856	1.39493	1.38683	0.654939	-0.449045	1.02154	0.347982	0.0422027	0.164579	0.439173	-0.140517	0	0	0.183213	0.0022317	-0.0970369	0.308039	-0.182757	0	0	-0.337689	0.0292288	-0.0181895	-0.20279	-0.254367	-0.0156807	1.15435	1.47743	0	0	-0.308581	0.0271079	-0.476215	1.06859	1.5708	0	0
0.07	0.0557451	1.39588	1.39046	0.654478	-0.447853	1.02169	0.345768	0.0407864	0.163254	0.439568	-0.13916	0	0	0.179855	0.00366119	-0.0943362	0.304291	-0.184213	0	0	-0.338481	0.0294093	-0.0207866	-0.207054	-0.259494	-0.0118225	1.16652	1.46511	0	0	-0.311621	0.0296885	-0.479236	1.07798	1.5708	0	0
0.08	0.0552979	1.3963	1.39366	0.65412	-0.44658	1.0218	0.344031	0.0398093	0.162891	0.439987	-0.137802	0	0	0.176682	0.00483932	-0.0923181	0.299908	-0.185831	0	0	-0.338242	0.0295006	-0.0225263	-0.211159	-0.265241	-0.00700131	1.17834	1.45112	0	0	-0.314811	0.0324295	-0.482111	1.08796	1.5708	0	0
0.09	0.0548308	1.39677	1.39709	0.653745	-0.445306	1.02194	0.34222	0.0387163	0.161982	0.440463	-0.136388	0	0	0.173428	0.00617047	-0.0896476	0.295625	-0.187517	0	0	-0.337941	0.0296141	-0.024267	-0.215209	-0.270157	-0.00346172	1.19034	1.43615	0	0	-0.318007	0.0347395	-0.483894	1.09945	1.5708	0	0
0.1	0.0548179	1.39707	1.40034	0.653388	-0.444061	1.02206	0.340572	0.0377779	0.161227	0.441024	-0.135077	0	0	0.170582	0.00737142	-0.0866227	0.29197	-0.188951	0	0	-0.337363	0.0297425	-0.0258325	-0.219368	-0.274097	-0.00151809	1.20269	1.42317	0	0	-0.321695	0.0358155	-0.483892	1.11198	1.5708	0	0
0.11	0.0552511	1.39701	1.40309	0.653076	-0.442804	1.02212	0.339271	0.0370915	0.160584	0.441516	-0.133951	0	0	0.16823	0.00822412	-0.0836796	0.288769	-0.190074	0	0	-0.336224	0.0299095	-0.0271641	-0.223525	-0.27774	-0.000327219	1.21539	1.41301	0	0	-0.325431	0.0361701	-0.483077	1.12567	1.5708	0	0
0.12	0.0562454	1.39685	1.40525	0.652772	-0.441547	1.02214	0.338095	0.0365168	0.159769	0.442017	-0.132811	0	0	0.166047	0.00881608	-0.0805778	0.285467	-0.191082	0	0	-0.334861	0.0303522	-0.0285209	-0.227446	-0.281766	0.000786979	1.22867	1.40365	0	0	-0.328892	0.0360771	-0.481967	1.14031	1.5708	0	0
0.13	0.0564234	1.39666	1.40824	0.652439	-0.440317	1.02214	0.337112	0.0356961	0.158544	0.442807	-0.131658	0	0	0.163996	0.00957153	-0.0776266	0.28243	-0.191973	0	0	-0.333321	0.03073	-0.0297606	-0.230654	-0.285836	0.00163676	1.24148	1.39449	0	0	-0.332477	0.0352564	-0.479986	1.15529	1.5708	0	0
0.14	0.0549157	1.39612	1.41327	0.652076	-0.439134	1.02208	0.336722	0.0344004	0.156421	0.44401	-0.130532	0	0	0.162585	0.0104528	-0.0755801	0.279808	-0.192831	0	0	-0.331243	0.0309548	-0.0312467	-0.232805	-0.289156	0.00185164	1.25288	1.38513	0	0	-0.336158	0.033636	-0.477345	1.17021	1.5708	0	0
0.15	0.0524957	1.39494	1.41994	0.651606	-0.43803	1.02199	0.337148	0.0326663	0.153435	0.445362	-0.129628	0	0	0.162382	0.0112133	-0.0751304	0.278096	-0.193583	0	0	-0.328785	0.0313921	-0.0336829	-0.234054	-0.2919	0.00114464	1.26226	1.37719	0	0	-0.338781	0.031633	-0.474962	1.18363	1.5708	0	0
0.16	0.0516121	1.39365	1.42493	0.651172	-0.436968	1.02184	0.337545	0.0313172	0.151029	0.446258	-0.128668	0	0	0.163169	0.0115856	-0.0761337	0.278341	-0.193872	0	0	-0.326295	0.0318868	-0.0358811	-0.234182	-0.294695	0.00110254	1.26835	1.37116	0	0	-0.34082	0.02883	-0.471411	1.19486	1.5708	0	0
0.17	0.0518288	1.39262	1.42776	0.65086	-0.435917	1.02171	0.337224	0.0304712	0.149697	0.445862	-0.127824	0	0	0.163525	0.0118314	-0.0767787	0.278726	-0.193729	0	0	-0.324008	0.0322214	-0.0368164	-0.233703	-0.297201	0.00194881	1.271	1.36528	0	0	-0.341929	0.02619	-0.468105	1.20295	1.5708	0	0
0.18	0.0513682	1.39506	1.43046	0.650656	-0.434809	1.02195	0.332885	0.0291297	0.148173	0.444654	-0.126073	0	0	0.157063	0.0130082	-0.0751323	0.271219	-0.198162	0	0	-0.325514	0.0317328	-0.0351585	-0.233784	-0.29813	0.000834958	1.27214	1.36426	0	0	-0.340555	0.0211544	-0.460502	1.20793	1.5708	0	0
0.19	0.050496	1.39609	1.43328	0.650512	-0.433728	1.02205	0.330646	0.0282126	0.147463	0.444949	-0.124954	0	0	0.152929	0.0138688	-0.0735031	0.266401	-0.199786	0	0	-0.325824	0.0312777	-0.0348609	-0.232601	-0.298612	0.00110466	1.27254	1.3598	0	0	-0.338495	0.0177854	-0.45597	1.21168	1.5708	0	0
0.2	0.0487526	1.3972	1.43684	0.650372	-0.432658	1.02216	0.328484	0.0270895	0.146916	0.445448	-0.123785	0	0	0.148861	0.0149483	-0.0721024	0.261621	-0.201466	0	0	-0.326326	0.0306609	-0.0347683	-0.230935	-0.298392	0.000452737	1.27308	1.35584	0	0	-0.335334	0.0147008	-0.4518	1.21418	1.5708	0	0
0.21	0.0456828	1.39826	1.44157	0.650229	-0.431632	1.02225	0.326543	0.0257737	0.146346	0.446118	-0.122751	0	0	0.145076	0.0162226	-0.0713463	0.2576	-0.202862	0	0	-0.326918	0.0299203	-0.0348968	-0.228415	-0.298302	0.000284159	1.27342	1.35154	0	0	-0.331734	0.0119264	-0.448029	1.21586	1.5708	0	0
0.22	0.044699	1.39899	1.44457	0.650049	-0.43078	1.02235	0.325079	0.0249128	0.145761	0.446821	-0.121804	0	0	0.142284	0.0170094	-0.0702547	0.254819	-0.20395	0	0	-0.327579	0.0298379	-0.0353695	-0.224743	-0.298611	0.00116757	1.2732	1.34642	0	0	-0.327647	0.00951961	-0.444832	1.21757	1.5708	0	0
0.23	0.0417166	1.39932	1.44952	0.649872	-0.429994	1.02239	0.324264	0.0238218	0.145209	0.447725	-0.120775	0	0	0.140323	0.0180131	-0.069483	0.252262	-0.204915	0	0	-0.32791	0.0294769	-0.036109	-0.220517	-0.298827	0.00267938	1.27235	1.34069	0	0	-0.323234	0.00725709	-0.442233	1.2193	1.5708	0	0
